<mxfile host="app.diagrams.net" agent="Mozilla/5.0 (X11; Linux x86_64; rv:138.0) Gecko/20100101 Firefox/138.0" version="28.0.3">
  <diagram id="knDV8Wr8-cGNIj0-wZhq" name="Page-1">
    <mxGraphModel dx="1835" dy="1206" grid="1" gridSize="10" guides="1" tooltips="1" connect="1" arrows="1" fold="1" page="1" pageScale="1" pageWidth="850" pageHeight="1100" math="0" shadow="0">
      <root>
        <mxCell id="0" />
        <mxCell id="1" parent="0" />
        <mxCell id="G46FJwDpbI4KqKtGu98a-28" value="Consume" style="ellipse;whiteSpace=wrap;html=1;" vertex="1" parent="1">
          <mxGeometry x="770" y="460" width="140" height="100" as="geometry" />
        </mxCell>
        <mxCell id="G46FJwDpbI4KqKtGu98a-29" value="Blackhole?" style="ellipse;whiteSpace=wrap;html=1;" vertex="1" parent="1">
          <mxGeometry x="1060" y="330" width="120" height="80" as="geometry" />
        </mxCell>
        <mxCell id="G46FJwDpbI4KqKtGu98a-32" value="" style="endArrow=none;html=1;rounded=0;entryX=0.133;entryY=0.775;entryDx=0;entryDy=0;entryPerimeter=0;exitX=1;exitY=0.5;exitDx=0;exitDy=0;" edge="1" parent="1" source="G46FJwDpbI4KqKtGu98a-28" target="G46FJwDpbI4KqKtGu98a-29">
          <mxGeometry width="50" height="50" relative="1" as="geometry">
            <mxPoint x="910" y="650" as="sourcePoint" />
            <mxPoint x="960" y="600" as="targetPoint" />
            <Array as="points" />
          </mxGeometry>
        </mxCell>
        <mxCell id="G46FJwDpbI4KqKtGu98a-33" value="&lt;div&gt;Collection of food, souls etc.&lt;/div&gt;" style="ellipse;whiteSpace=wrap;html=1;" vertex="1" parent="1">
          <mxGeometry x="1060" y="470" width="120" height="80" as="geometry" />
        </mxCell>
        <mxCell id="G46FJwDpbI4KqKtGu98a-34" value="" style="endArrow=none;html=1;rounded=0;entryX=0;entryY=0.5;entryDx=0;entryDy=0;exitX=1;exitY=0.5;exitDx=0;exitDy=0;" edge="1" parent="1" source="G46FJwDpbI4KqKtGu98a-28" target="G46FJwDpbI4KqKtGu98a-33">
          <mxGeometry width="50" height="50" relative="1" as="geometry">
            <mxPoint x="910" y="650" as="sourcePoint" />
            <mxPoint x="960" y="600" as="targetPoint" />
          </mxGeometry>
        </mxCell>
        <mxCell id="G46FJwDpbI4KqKtGu98a-35" value="&lt;div&gt;Feed entity,&amp;nbsp;&lt;/div&gt;&lt;div&gt;like god etc..&lt;/div&gt;" style="ellipse;whiteSpace=wrap;html=1;" vertex="1" parent="1">
          <mxGeometry x="1240" y="540" width="120" height="80" as="geometry" />
        </mxCell>
        <mxCell id="G46FJwDpbI4KqKtGu98a-36" value="" style="endArrow=none;html=1;rounded=0;entryX=0;entryY=0;entryDx=0;entryDy=0;exitX=1;exitY=1;exitDx=0;exitDy=0;" edge="1" parent="1" source="G46FJwDpbI4KqKtGu98a-33" target="G46FJwDpbI4KqKtGu98a-35">
          <mxGeometry width="50" height="50" relative="1" as="geometry">
            <mxPoint x="910" y="650" as="sourcePoint" />
            <mxPoint x="960" y="600" as="targetPoint" />
          </mxGeometry>
        </mxCell>
        <mxCell id="G46FJwDpbI4KqKtGu98a-37" value="" style="endArrow=none;html=1;rounded=0;entryX=0;entryY=0.5;entryDx=0;entryDy=0;exitX=1;exitY=0.5;exitDx=0;exitDy=0;" edge="1" parent="1" source="G46FJwDpbI4KqKtGu98a-38" target="G46FJwDpbI4KqKtGu98a-28">
          <mxGeometry width="50" height="50" relative="1" as="geometry">
            <mxPoint x="520" y="520" as="sourcePoint" />
            <mxPoint x="960" y="600" as="targetPoint" />
          </mxGeometry>
        </mxCell>
        <mxCell id="G46FJwDpbI4KqKtGu98a-38" value="&lt;div&gt;Flee from Entity from being consumed&lt;/div&gt;" style="ellipse;whiteSpace=wrap;html=1;" vertex="1" parent="1">
          <mxGeometry x="490" y="470" width="120" height="80" as="geometry" />
        </mxCell>
        <mxCell id="G46FJwDpbI4KqKtGu98a-39" value="" style="endArrow=none;html=1;rounded=0;entryX=0.5;entryY=1;entryDx=0;entryDy=0;exitX=0;exitY=0.375;exitDx=0;exitDy=0;exitPerimeter=0;" edge="1" parent="1" source="G46FJwDpbI4KqKtGu98a-40" target="G46FJwDpbI4KqKtGu98a-35">
          <mxGeometry width="50" height="50" relative="1" as="geometry">
            <mxPoint x="840" y="680" as="sourcePoint" />
            <mxPoint x="960" y="600" as="targetPoint" />
          </mxGeometry>
        </mxCell>
        <mxCell id="G46FJwDpbI4KqKtGu98a-40" value="&lt;div&gt;Weapon that needs to be fed&lt;/div&gt;" style="ellipse;whiteSpace=wrap;html=1;" vertex="1" parent="1">
          <mxGeometry x="1420" y="650" width="120" height="80" as="geometry" />
        </mxCell>
        <mxCell id="G46FJwDpbI4KqKtGu98a-42" value="&lt;div&gt;Stop Blackhole&lt;/div&gt;&lt;div&gt;from consuming&lt;/div&gt;&lt;div&gt;World?&lt;/div&gt;" style="ellipse;whiteSpace=wrap;html=1;" vertex="1" parent="1">
          <mxGeometry x="1250" y="230" width="120" height="80" as="geometry" />
        </mxCell>
        <mxCell id="G46FJwDpbI4KqKtGu98a-43" value="" style="endArrow=none;html=1;rounded=0;entryX=0;entryY=0.5;entryDx=0;entryDy=0;exitX=1;exitY=0;exitDx=0;exitDy=0;" edge="1" parent="1" source="G46FJwDpbI4KqKtGu98a-29" target="G46FJwDpbI4KqKtGu98a-42">
          <mxGeometry width="50" height="50" relative="1" as="geometry">
            <mxPoint x="910" y="650" as="sourcePoint" />
            <mxPoint x="960" y="600" as="targetPoint" />
          </mxGeometry>
        </mxCell>
        <mxCell id="G46FJwDpbI4KqKtGu98a-44" value="Potion Tester?" style="ellipse;whiteSpace=wrap;html=1;" vertex="1" parent="1">
          <mxGeometry x="490" y="250" width="120" height="80" as="geometry" />
        </mxCell>
        <mxCell id="G46FJwDpbI4KqKtGu98a-45" value="" style="endArrow=none;html=1;rounded=0;entryX=1;entryY=1;entryDx=0;entryDy=0;exitX=0;exitY=0;exitDx=0;exitDy=0;" edge="1" parent="1" source="G46FJwDpbI4KqKtGu98a-28" target="G46FJwDpbI4KqKtGu98a-44">
          <mxGeometry width="50" height="50" relative="1" as="geometry">
            <mxPoint x="910" y="710" as="sourcePoint" />
            <mxPoint x="960" y="660" as="targetPoint" />
          </mxGeometry>
        </mxCell>
      </root>
    </mxGraphModel>
  </diagram>
</mxfile>
